<svg xmlns="http://www.w3.org/2000/svg" xmlns:xlink="http://www.w3.org/1999/xlink" xmlns:inkscape="http://www.inkscape.org/namespaces/inkscape" version="1.1" width="485.65998" height="344.31999" viewBox="0 0 485.65998 344.31999">
<defs>
<clipPath id="clip_1">
<path transform="matrix(1,0,0,-1,-65.95,566.73)" d="M65.95 222.41H551.61V566.73H65.95Z"/>
</clipPath>
</defs>
<text xml:space="preserve" transform="matrix(1 0 -0 1 -65.95 566.73)" font-size="9.9626" font-family="Computer Modern"><tspan y="-549.789" x="72 78.366107 83.347408 88.88661 91.65621 99.84547 104.82677 112.90643 119.41201 123.8354 127.740749 130.7893 135.7706 139.67594 147.97478 152.95607 158.49527 162.91867 171.10794 175.53134 180.51264 188.81148 194.35068 199.33197 203.2373 206.00691 209.93218 214.91347 224.21854 229.19983 238.5049 244.0441 248.4675 252.8909 262.19599 267.17729 272.7165 282.02159 289.49354 295.03276 298.958 303.3814 307.8048 317.1099 322.6491 327.6304 331.50587 336.48716 340.4124 344.83583 348.71128 352.63655 361.16453 368.77595 375.3114 378.9079 385.44337 394.57908 401.11454 408.5865 415.12196 420.10325 425.64247 434.94755 446.18537 451.72459 456.14799 461.6872 466.6685 470.54396 478.73323 487.03208 494.6435 497.4131 501.8365 506.2599 512.9049 521.20376 524.80026 529.78158 537.2535">Table1:PerformancecomparisononSeenandUnseendatasets.D,I,M,H,andAdenotemDice,mIoU,</tspan><tspan y="-537.834" x="72 81.135707 88.60765 95.39218 101.479328 108.95128 116.562709 121.54401 126.52531 132.62242 137.60372 143.14292 151.99967 159.47162 165.01082 175.93979 179.84513 184.26853 188.19379 194.01194 198.43534 202.85874 206.73419 209.5038 214.4851 218.90851 221.67812 226.11148 233.30449 240.35802 244.78142 248.70668 255.90966 259.815 264.2384 268.16368 273.70289 276.47248 280.34794 287.59074 292.57203 296.47737 304.2183 306.98789">MAE,HD95,andASDrespectively.Bestresultsarein</tspan></text>
<text xml:space="preserve" transform="matrix(1 0 -0 1 -65.95 566.73)" font-size="9.9626" font-family="Computer Modern" font-weight="bold"><tspan y="-537.834" x="315.8546 322.53953 328.268 331.44609">bold</tspan></text>
<text xml:space="preserve" transform="matrix(1 0 -0 1 -65.95 566.73)" font-size="9.9626" font-family="Computer Modern"><tspan y="-537.834" x="337.81217 343.8993 347.82456 352.24797 356.67137 361.65266 367.19187 372.73109 376.0486 381.8668 386.2902 390.21546 397.40846 405.7073 410.6886 414.59394 419.57524 424.00859 432.86534 440.05833 442.8279 446.70338">,second-bestmarkedwith</tspan></text>
<text xml:space="preserve" transform="matrix(1 0 -0 1 -65.95 566.73)" font-size="6.9738" font-family="Computer Modern" font-style="italic"><tspan y="-541.449" x="455.548">&#x2217;</tspan></text>
<text xml:space="preserve" transform="matrix(1 0 -0 1 -65.95 566.73)" font-size="9.9626" font-family="Computer Modern"><tspan y="-537.834" x="460.128">.</tspan></text>
<path transform="matrix(1,0,0,-1,32.027,42.843996)" stroke-width=".797" stroke-linecap="butt" stroke-miterlimit="10" stroke-linejoin="miter" fill="none" stroke="#000000" d="M0 0H416.045"/>
<text xml:space="preserve" transform="matrix(1 0 -0 1 -65.95 566.73)" font-size="7.9701" font-family="Computer Modern"><tspan y="-513.743" x="101.963 108.42675 112.658878 115.95052 120.18265 123.52212 127.284008 187.5539 195.3088 199.0707 202.36235 207.06472 211.53594 289.0372">DatasetMethodD</tspan></text>
<text xml:space="preserve" transform="matrix(1 0 -0 1 -65.95 566.73)" font-size="7.9701" font-family="Computer Modern" font-style="italic"><tspan y="-513.743" x="295.50096">&#x2191;</tspan></text>
<text xml:space="preserve" transform="matrix(1 0 -0 1 -65.95 566.73)" font-size="7.9701" font-family="Computer Modern"><tspan y="-513.743" x="325.83515">I</tspan></text>
<text xml:space="preserve" transform="matrix(1 0 -0 1 -65.95 566.73)" font-size="7.9701" font-family="Computer Modern" font-style="italic"><tspan y="-513.743" x="328.8877">&#x2191;</tspan></text>
<text xml:space="preserve" transform="matrix(1 0 -0 1 -65.95 566.73)" font-size="7.9701" font-family="Computer Modern" font-style="italic"><tspan y="-513.743" x="356.0498">S</tspan></text>
<text xml:space="preserve" transform="matrix(1 0 -0 1 -65.95 566.73)" font-size="5.9776" font-family="Computer Modern" font-style="italic"><tspan y="-512.747" x="361.221">&#x03b1;</tspan></text>
<text xml:space="preserve" transform="matrix(1 0 -0 1 -65.95 566.73)" font-size="7.9701" font-family="Computer Modern" font-style="italic"><tspan y="-513.743" x="368.881">&#x2191;</tspan></text>
<text xml:space="preserve" transform="matrix(1 0 -0 1 -65.95 566.73)" font-size="7.9701" font-family="Computer Modern" font-style="italic"><tspan y="-513.743" x="390.12135">F</tspan></text>
<text xml:space="preserve" transform="matrix(1 0 -0 1 -65.95 566.73)" font-size="5.9776" font-family="Computer Modern" font-style="italic"><tspan y="-516.55599" x="396.659">w</tspan><tspan y="-510.96998" x="395.483">&#x03b2;</tspan></text>
<text xml:space="preserve" transform="matrix(1 0 -0 1 -65.95 566.73)" font-size="7.9701" font-family="Computer Modern" font-style="italic"><tspan y="-513.743" x="405.01">&#x2191;</tspan></text>
<text xml:space="preserve" transform="matrix(1 0 -0 1 -65.95 566.73)" font-size="7.9701" font-family="Computer Modern"><tspan y="-513.743" x="428.77687">M</tspan></text>
<text xml:space="preserve" transform="matrix(1 0 -0 1 -65.95 566.73)" font-size="7.9701" font-family="Computer Modern" font-style="italic"><tspan y="-513.743" x="436.53178">&#x2193;</tspan></text>
<text xml:space="preserve" transform="matrix(1 0 -0 1 -65.95 566.73)" font-size="7.9701" font-family="Computer Modern"><tspan y="-513.743" x="462.7773">H</tspan></text>
<text xml:space="preserve" transform="matrix(1 0 -0 1 -65.95 566.73)" font-size="7.9701" font-family="Computer Modern" font-style="italic"><tspan y="-513.743" x="469.12153">&#x2193;</tspan></text>
<text xml:space="preserve" transform="matrix(1 0 -0 1 -65.95 566.73)" font-size="7.9701" font-family="Computer Modern"><tspan y="-513.743" x="493.6216">A</tspan></text>
<text xml:space="preserve" transform="matrix(1 0 -0 1 -65.95 566.73)" font-size="7.9701" font-family="Computer Modern" font-style="italic"><tspan y="-513.743" x="499.96583">&#x2193;</tspan></text>
<path transform="matrix(1,0,0,-1,32.027,58.886995)" stroke-width=".498" stroke-linecap="butt" stroke-miterlimit="10" stroke-linejoin="miter" fill="none" stroke="#000000" d="M0 0H416.045"/>
<text xml:space="preserve" transform="matrix(1 0 -0 1 -65.95 566.73)" font-size="7.9701" font-family="Computer Modern"><tspan y="-478.069" x="101.963 108.53833 112.53932 116.77145 120.110919 122.4621 125.76172 128.58313 133.28549 137.04738 140.38686 143.72634 146.07752 148.4287">Kvasir-Sessile</tspan><tspan y="-497.85" x="187.566 193.32837 198.03073 203.79312 210.13733 213.89922 284.76936 289.00148 291.35264 295.58476 299.81687 317.6938 321.9259 324.27708 328.5092 332.7413">ESPNet0.8830.819</tspan></text>
<text xml:space="preserve" transform="matrix(1 0 -0 1 -65.95 566.73)" font-size="5.9776" font-family="Computer Modern" font-style="italic"><tspan y="-500.663" x="336.98799">&#x2217;</tspan></text>
<text xml:space="preserve" transform="matrix(1 0 -0 1 -65.95 566.73)" font-size="7.9701" font-family="Computer Modern"><tspan y="-497.85" x="354.94798 359.18009 361.53126 365.76338 369.99549 390.03233 394.26445 396.6156 400.84773 405.07188 422.9488 427.1809 429.53208 433.7642 437.9963">0.9130.8740.019</tspan></text>
<text xml:space="preserve" transform="matrix(1 0 -0 1 -65.95 566.73)" font-size="5.9776" font-family="Computer Modern" font-style="italic"><tspan y="-500.663" x="442.261">&#x2217;</tspan></text>
<text xml:space="preserve" transform="matrix(1 0 -0 1 -65.95 566.73)" font-size="7.9701" font-family="Computer Modern"><tspan y="-497.85" x="465.94999 496.80226">&#x2013;&#x2013;</tspan><tspan y="-487.91203" x="187.56598 194.14131 200.4855 206.82971 209.65113 215.99533 219.04788 225.39209 229.15398 235.26705 238.5587 243.26107 250.31459 256.88993 263.23414 269.5863 284.76139 288.9935 291.34468 295.57679 299.8089 319.83778 324.0699 326.42106 330.65318 334.88529 354.92213 359.15425 361.5054 365.73753 369.96965 389.9985 394.23063 396.5818 400.8139 405.04603 425.08287 429.31498 431.66615 435.89826 440.13038 460.47804 464.71015 468.94227 471.29344 491.3223 495.5544 499.78654 502.1377">KAN-AINet(noKAN)0.8560.7850.9090.9110.02454.120.5</tspan><tspan y="-477.97404" x="187.56598 194.14131 200.4855 206.82971 209.65113 215.99533 219.04788 225.39209 229.15398 235.26705 238.5587 245.142 249.84436 253.14398 256.48347 282.60148 286.8336 289.18476 293.41688 297.649">KAN-AINet(Ours)0.887</tspan></text>
<text xml:space="preserve" transform="matrix(1 0 -0 1 -65.95 566.73)" font-size="5.9776" font-family="Computer Modern" font-style="italic"><tspan y="-480.78703" x="301.89698">&#x2217;</tspan></text>
<text xml:space="preserve" transform="matrix(1 0 -0 1 -65.95 566.73)" font-size="7.9701" font-family="Computer Modern"><tspan y="-477.97404" x="319.85697 324.08909 326.44026 330.67237 334.90449 352.7814 357.01353 359.3647 363.5968 367.82893">0.8180.922</tspan></text>
<text xml:space="preserve" transform="matrix(1 0 -0 1 -65.95 566.73)" font-size="5.9776" font-family="Computer Modern" font-style="italic"><tspan y="-480.78703" x="372.07899">&#x2217;</tspan></text>
<text xml:space="preserve" transform="matrix(1 0 -0 1 -65.95 566.73)" font-size="7.9701" font-family="Computer Modern"><tspan y="-477.97404" x="387.88099 392.1131 394.46427 398.69639 402.9285">0.918</tspan></text>
<text xml:space="preserve" transform="matrix(1 0 -0 1 -65.95 566.73)" font-size="5.9776" font-family="Computer Modern" font-style="italic"><tspan y="-480.78703" x="407.16999">&#x2217;</tspan></text>
<text xml:space="preserve" transform="matrix(1 0 -0 1 -65.95 566.73)" font-size="7.9701" font-family="Computer Modern"><tspan y="-477.97404" x="422.972 427.2041 429.55528 433.78739 438.0195">0.019</tspan></text>
<text xml:space="preserve" transform="matrix(1 0 -0 1 -65.95 566.73)" font-size="5.9776" font-family="Computer Modern" font-style="italic"><tspan y="-480.78703" x="442.261">&#x2217;</tspan></text>
<text xml:space="preserve" transform="matrix(1 0 -0 1 -65.95 566.73)" font-size="7.9701" font-family="Computer Modern" font-weight="bold"><tspan y="-477.97404" x="459.388 464.27369 469.15937 471.8692 492.6871 497.57279 500.28263">31.27.4</tspan></text>
<text xml:space="preserve" transform="matrix(1 0 -0 1 -65.95 566.73)" font-size="7.9701" font-family="Computer Modern"><tspan y="-468.03703" x="187.56601 194.14134 200.48554 206.82975 209.65116 212.7037 220.45862">KAN-IMM</tspan></text>
<text xml:space="preserve" transform="matrix(1 0 -0 1 -65.95 566.73)" font-size="7.9701" font-family="Computer Modern" font-weight="bold"><tspan y="-468.03703" x="283.2949 288.18058 290.8904 295.7761 300.66178 318.39527 323.28096 325.99079 330.87648 335.76216 353.5036 358.38929 361.09913 365.9848 370.87049 388.60398 393.48966 396.1995 401.08518 405.97087 423.7123 428.598 431.30784 436.1935 441.0792">0.8900.8240.9250.9200.018</tspan></text>
<text xml:space="preserve" transform="matrix(1 0 -0 1 -65.95 566.73)" font-size="7.9701" font-family="Computer Modern"><tspan y="-468.03703" x="458.454 462.68614 466.91825 469.2694">35.2</tspan></text>
<text xml:space="preserve" transform="matrix(1 0 -0 1 -65.95 566.73)" font-size="5.9776" font-family="Computer Modern" font-style="italic"><tspan y="-470.84904" x="473.436">&#x2217;</tspan></text>
<text xml:space="preserve" transform="matrix(1 0 -0 1 -65.95 566.73)" font-size="7.9701" font-family="Computer Modern"><tspan y="-468.03703" x="489.232 493.4641 497.69624 500.0474">11.4</tspan></text>
<text xml:space="preserve" transform="matrix(1 0 -0 1 -65.95 566.73)" font-size="5.9776" font-family="Computer Modern" font-style="italic"><tspan y="-470.84904" x="504.287">&#x2217;</tspan></text>
<text xml:space="preserve" transform="matrix(1 0 -0 1 -65.95 566.73)" font-size="7.9701" font-family="Computer Modern"><tspan y="-458.09904" x="187.56598 194.14131 200.4855 206.82971 209.65113 215.64464 221.98883 284.76933 289.00144 291.3526 295.58473 299.81684 319.8457 324.07783 326.429 330.6611 334.89323 354.93006 359.16218 361.51335 365.74546 369.97758 390.00645 394.23857 396.58973 400.82185 405.05397 425.0908 429.3229 431.67408 435.9062 440.1383 460.48597 464.71809 468.9502 471.30137 491.33024 495.56236 499.79447 502.14564">KAN-BAM0.8760.8070.9190.9190.02143.213.0</tspan></text>
<path transform="matrix(1,0,0,-1,32.027,113.576969)" stroke-width=".498" stroke-linecap="butt" stroke-miterlimit="10" stroke-linejoin="miter" fill="none" stroke="#000000" d="M0 0H416.045"/>
<text xml:space="preserve" transform="matrix(1 0 -0 1 -65.95 566.73)" font-size="7.9701" font-family="Computer Modern"><tspan y="-423.378" x="101.963 108.076068 114.18116 120.29423 123.11565 129.22872 133.46083 135.81201 140.04413 144.74649 151.21024">CVC-ColonDB</tspan><tspan y="-443.159" x="187.566 193.32837 198.03073 203.79312 210.13733 213.89922">ESPNet</tspan></text>
<text xml:space="preserve" transform="matrix(1 0 -0 1 -65.95 566.73)" font-size="7.9701" font-family="Computer Modern" font-weight="bold"><tspan y="-443.159" x="283.2949 288.18058 290.8904 295.7761 300.66178 318.39527 323.28096 325.99079 330.87648 335.76216">0.8020.725</tspan></text>
<text xml:space="preserve" transform="matrix(1 0 -0 1 -65.95 566.73)" font-size="7.9701" font-family="Computer Modern"><tspan y="-443.159" x="352.81819 357.0503 359.40147 363.63359 367.8657">0.856</tspan></text>
<text xml:space="preserve" transform="matrix(1 0 -0 1 -65.95 566.73)" font-size="5.9776" font-family="Computer Modern" font-style="italic"><tspan y="-445.972" x="372.07899">&#x2217;</tspan></text>
<text xml:space="preserve" transform="matrix(1 0 -0 1 -65.95 566.73)" font-size="7.9701" font-family="Computer Modern"><tspan y="-443.159" x="390.03898 394.2711 396.62226 400.85438 405.0865">0.794</tspan></text>
<text xml:space="preserve" transform="matrix(1 0 -0 1 -65.95 566.73)" font-size="7.9701" font-family="Computer Modern" font-weight="bold"><tspan y="-443.159" x="423.64088 428.52656 431.2364 436.12208 441.00776">0.032</tspan></text>
<text xml:space="preserve" transform="matrix(1 0 -0 1 -65.95 566.73)" font-size="7.9701" font-family="Computer Modern"><tspan y="-443.159" x="465.95417 496.79844">&#x2013;&#x2013;</tspan><tspan y="-433.221" x="187.56597 194.1413 200.4855 206.82971 209.65113 215.99533 219.04788 225.39209 229.15398 235.26705 238.5587 243.26107 250.31459 256.88993 263.23414 269.5863 284.76139 288.9935 291.34468 295.57679 299.8089 319.83778 324.0699 326.42106 330.65318 334.88529 354.92213 359.15425 361.5054 365.73753 369.96965 389.9985 394.23063 396.5818 400.8139 405.04603 425.08287 429.31498 431.66615 435.89826 440.13038 458.36598 462.59809 466.8302 471.06233 473.41349 491.3223 495.5544 499.78654 502.1377">KAN-AINet(noKAN)0.7310.6570.8300.7590.044120.589.2</tspan><tspan y="-423.284" x="187.56597 194.1413 200.4855 206.82971 209.65113 215.99533 219.04788 225.39209 229.15398 235.26705 238.5587 245.142 249.84436 253.14398 256.48347 282.60148 286.8336 289.18476 293.41688 297.649">KAN-AINet(Ours)0.784</tspan></text>
<text xml:space="preserve" transform="matrix(1 0 -0 1 -65.95 566.73)" font-size="5.9776" font-family="Computer Modern" font-style="italic"><tspan y="-426.096" x="301.89698">&#x2217;</tspan></text>
<text xml:space="preserve" transform="matrix(1 0 -0 1 -65.95 566.73)" font-size="7.9701" font-family="Computer Modern"><tspan y="-423.284" x="317.69898 321.9311 324.28227 328.51438 332.7465">0.711</tspan></text>
<text xml:space="preserve" transform="matrix(1 0 -0 1 -65.95 566.73)" font-size="5.9776" font-family="Computer Modern" font-style="italic"><tspan y="-426.096" x="336.98799">&#x2217;</tspan></text>
<text xml:space="preserve" transform="matrix(1 0 -0 1 -65.95 566.73)" font-size="7.9701" font-family="Computer Modern" font-weight="bold"><tspan y="-423.284" x="353.47297 358.35865 361.06849 365.95417 370.83985 388.5813 393.46699 396.17683 401.0625 405.94819">0.8620.811</tspan></text>
<text xml:space="preserve" transform="matrix(1 0 -0 1 -65.95 566.73)" font-size="7.9701" font-family="Computer Modern"><tspan y="-423.284" x="422.99626 427.22837 429.57954 433.81166 438.04377">0.039</tspan></text>
<text xml:space="preserve" transform="matrix(1 0 -0 1 -65.95 566.73)" font-size="5.9776" font-family="Computer Modern" font-style="italic"><tspan y="-426.096" x="442.26097">&#x2217;</tspan></text>
<text xml:space="preserve" transform="matrix(1 0 -0 1 -65.95 566.73)" font-size="7.9701" font-family="Computer Modern" font-weight="bold"><tspan y="-423.284" x="459.38798 464.27366 469.15934 471.86918 490.24824 495.1339 500.0196 502.72944">78.352.0</tspan></text>
<text xml:space="preserve" transform="matrix(1 0 -0 1 -65.95 566.73)" font-size="7.9701" font-family="Computer Modern"><tspan y="-413.346" x="187.56598 194.14131 200.4855 206.82971 209.65113 212.70368 220.45859 284.76936 289.00148 291.35264 295.58476 299.81687 319.8537 324.08583 326.43699 330.6691 334.89326 352.77018 357.0023 359.35346 363.58558 367.8177">KAN-IMM0.7750.7040.856</tspan></text>
<text xml:space="preserve" transform="matrix(1 0 -0 1 -65.95 566.73)" font-size="5.9776" font-family="Computer Modern" font-style="italic"><tspan y="-416.159" x="372.07899">&#x2217;</tspan></text>
<text xml:space="preserve" transform="matrix(1 0 -0 1 -65.95 566.73)" font-size="7.9701" font-family="Computer Modern"><tspan y="-413.346" x="387.88099 392.1131 394.46427 398.69639 402.9285">0.799</tspan></text>
<text xml:space="preserve" transform="matrix(1 0 -0 1 -65.95 566.73)" font-size="5.9776" font-family="Computer Modern" font-style="italic"><tspan y="-416.159" x="407.16999">&#x2217;</tspan></text>
<text xml:space="preserve" transform="matrix(1 0 -0 1 -65.95 566.73)" font-size="7.9701" font-family="Computer Modern"><tspan y="-413.346" x="425.12998 429.3621 431.71327 435.94538 440.1775 458.37324 462.60536 466.83747 469.18864">0.04082.9</tspan></text>
<text xml:space="preserve" transform="matrix(1 0 -0 1 -65.95 566.73)" font-size="5.9776" font-family="Computer Modern" font-style="italic"><tspan y="-416.159" x="473.43598">&#x2217;</tspan></text>
<text xml:space="preserve" transform="matrix(1 0 -0 1 -65.95 566.73)" font-size="7.9701" font-family="Computer Modern"><tspan y="-413.346" x="489.23197 493.46409 497.6962 500.04737">56.7</tspan></text>
<text xml:space="preserve" transform="matrix(1 0 -0 1 -65.95 566.73)" font-size="5.9776" font-family="Computer Modern" font-style="italic"><tspan y="-416.159" x="504.28697">&#x2217;</tspan></text>
<text xml:space="preserve" transform="matrix(1 0 -0 1 -65.95 566.73)" font-size="7.9701" font-family="Computer Modern"><tspan y="-403.408" x="187.56595 194.14128 200.48548 206.82968 209.6511 215.6446 221.9888 284.7693 289.0014 291.35258 295.5847 299.8168 319.84568 324.0778 326.42897 330.66108 334.8932 354.93003 359.16215 361.5133 365.74543 369.97755 390.0064 394.23854 396.5897 400.8218 405.05393 425.09077 429.32289 431.67405 435.90617 440.13829 458.36589 462.598 466.8301 471.06224 473.4134 491.33018 495.5623 499.7944 502.14558">KAN-BAM0.7470.6750.8460.7820.041105.077.8</tspan></text>
<path transform="matrix(1,0,0,-1,32.027,168.26798)" stroke-width=".498" stroke-linecap="butt" stroke-miterlimit="10" stroke-linejoin="miter" fill="none" stroke="#000000" d="M0 0H416.045"/>
<text xml:space="preserve" transform="matrix(1 0 -0 1 -65.95 566.73)" font-size="7.9701" font-family="Computer Modern"><tspan y="-368.688" x="101.963 107.72538 113.83845 116.891 121.59336 124.41478 129.70693 133.93904 137.23867 139.58985 144.2922 149.81549 154.0476 156.39879 160.87001 165.57238 172.03612">ETIS-LaribPolypDB</tspan><tspan y="-388.468" x="187.566 193.32837 198.03073 203.79312 210.13733 213.89922 282.60948 286.84159 289.19276 293.42488 297.65699">ESPNet0.827</tspan></text>
<text xml:space="preserve" transform="matrix(1 0 -0 1 -65.95 566.73)" font-size="5.9776" font-family="Computer Modern" font-style="italic"><tspan y="-391.28099" x="301.897">&#x2217;</tspan></text>
<text xml:space="preserve" transform="matrix(1 0 -0 1 -65.95 566.73)" font-size="7.9701" font-family="Computer Modern"><tspan y="-388.468" x="317.699 321.93113 324.2823 328.5144 332.74653">0.760</tspan></text>
<text xml:space="preserve" transform="matrix(1 0 -0 1 -65.95 566.73)" font-size="5.9776" font-family="Computer Modern" font-style="italic"><tspan y="-391.28099" x="336.988">&#x2217;</tspan></text>
<text xml:space="preserve" transform="matrix(1 0 -0 1 -65.95 566.73)" font-size="7.9701" font-family="Computer Modern"><tspan y="-388.468" x="354.948 359.1801 361.53129 365.7634 369.9955 390.03236 394.26448 396.61564 400.84776 405.0719 425.10874 429.34086 431.69203 435.92414 440.15626 465.91563 496.76789">0.8900.8080.016&#x2013;&#x2013;</tspan><tspan y="-378.53099" x="187.566 194.14133 200.48554 206.82975 209.65116 215.99536 219.04792 225.39212 229.154 235.26708 238.55873 243.2611 250.31462 256.88996 263.23417 269.58634 284.7614 288.99354 291.3447 295.5768 299.80894 319.8378 324.06993 326.42109 330.6532 334.8853 352.76225 356.99436 359.34553 363.57765 367.80976">KAN-AINet(noKAN)0.8090.7440.894</tspan></text>
<text xml:space="preserve" transform="matrix(1 0 -0 1 -65.95 566.73)" font-size="5.9776" font-family="Computer Modern" font-style="italic"><tspan y="-381.343" x="372.07899">&#x2217;</tspan></text>
<text xml:space="preserve" transform="matrix(1 0 -0 1 -65.95 566.73)" font-size="7.9701" font-family="Computer Modern"><tspan y="-378.53099" x="387.88099 392.1131 394.46427 398.69639 402.9285">0.860</tspan></text>
<text xml:space="preserve" transform="matrix(1 0 -0 1 -65.95 566.73)" font-size="5.9776" font-family="Computer Modern" font-style="italic"><tspan y="-381.343" x="407.16999">&#x2217;</tspan></text>
<text xml:space="preserve" transform="matrix(1 0 -0 1 -65.95 566.73)" font-size="7.9701" font-family="Computer Modern"><tspan y="-378.53099" x="422.972 427.2041 429.55528 433.78739 438.0195">0.011</tspan></text>
<text xml:space="preserve" transform="matrix(1 0 -0 1 -65.95 566.73)" font-size="5.9776" font-family="Computer Modern" font-style="italic"><tspan y="-381.343" x="442.261">&#x2217;</tspan></text>
<text xml:space="preserve" transform="matrix(1 0 -0 1 -65.95 566.73)" font-size="7.9701" font-family="Computer Modern"><tspan y="-378.53099" x="460.539 464.77113 469.00325 471.3544 491.38328 495.6154 499.8475 502.19868">94.566.1</tspan><tspan y="-368.593" x="187.56601 194.14134 200.48554 206.82975 209.65116 215.99536 219.04792 225.39212 229.154 235.26708 238.55873 245.14203 249.84439 253.14402 256.4835">KAN-AINet(Ours)</tspan></text>
<text xml:space="preserve" transform="matrix(1 0 -0 1 -65.95 566.73)" font-size="7.9701" font-family="Computer Modern" font-weight="bold"><tspan y="-368.593" x="283.27897 288.16465 290.87449 295.76017 300.64585 318.3873 323.27299 325.98283 330.8685 335.75419 353.48768 358.37336 361.0832 365.96888 370.85456 388.596 393.4817 396.19154 401.0772 405.9629 423.69639 428.58207 431.2919 436.17759 441.06327 459.4503 464.33598 469.22166 471.9315 490.31056 495.19624 500.0819 502.79176">0.8590.7950.9190.8960.00748.429.1</tspan></text>
<text xml:space="preserve" transform="matrix(1 0 -0 1 -65.95 566.73)" font-size="7.9701" font-family="Computer Modern"><tspan y="-358.655" x="187.56601 194.14134 200.48554 206.82975 209.65116 212.7037 220.45862 284.76936 289.00148 291.35264 295.58476 299.81687 319.8537 324.08583 326.43699 330.6691 334.89326 354.93009 359.1622 361.51338 365.74549 369.9776 390.01445 394.24656 396.59773 400.82984 405.054 422.9309 427.16304 429.5142 433.7463 437.97843">KAN-IMM0.8000.7390.8890.8400.011</tspan></text>
<text xml:space="preserve" transform="matrix(1 0 -0 1 -65.95 566.73)" font-size="5.9776" font-family="Computer Modern" font-style="italic"><tspan y="-361.468" x="442.26103">&#x2217;</tspan></text>
<text xml:space="preserve" transform="matrix(1 0 -0 1 -65.95 566.73)" font-size="7.9701" font-family="Computer Modern"><tspan y="-358.655" x="460.539 464.77113 469.00325 471.3544 491.38328 495.6154 499.8475 502.19868">90.768.2</tspan><tspan y="-348.718" x="187.56601 194.14134 200.48554 206.82975 209.65116 215.64467 221.98886 284.76936 289.00148 291.35264 295.58476 299.81687 319.84574 324.07786 326.42903 330.66114 334.89326 354.93009 359.1622 361.51338 365.74549 369.9776 390.00648 394.2386 396.58976 400.82188 405.054 422.9309 427.16304 429.5142 433.7463 437.97843">KAN-BAM0.8040.7400.8920.8540.011</tspan></text>
<text xml:space="preserve" transform="matrix(1 0 -0 1 -65.95 566.73)" font-size="5.9776" font-family="Computer Modern" font-style="italic"><tspan y="-351.53" x="442.26103">&#x2217;</tspan></text>
<text xml:space="preserve" transform="matrix(1 0 -0 1 -65.95 566.73)" font-size="7.9701" font-family="Computer Modern"><tspan y="-348.718" x="458.381 462.61314 466.84526 469.1964">87.7</tspan></text>
<text xml:space="preserve" transform="matrix(1 0 -0 1 -65.95 566.73)" font-size="5.9776" font-family="Computer Modern" font-style="italic"><tspan y="-351.53" x="473.436">&#x2217;</tspan></text>
<text xml:space="preserve" transform="matrix(1 0 -0 1 -65.95 566.73)" font-size="7.9701" font-family="Computer Modern"><tspan y="-348.718" x="489.232 493.4641 497.69624 500.0474">60.7</tspan></text>
<text xml:space="preserve" transform="matrix(1 0 -0 1 -65.95 566.73)" font-size="5.9776" font-family="Computer Modern" font-style="italic"><tspan y="-351.53" x="504.287">&#x2217;</tspan></text>
<path transform="matrix(1,0,0,-1,32.027,222.95899)" stroke-width=".498" stroke-linecap="butt" stroke-miterlimit="10" stroke-linejoin="miter" fill="none" stroke="#000000" d="M0 0H416.045"/>
<text xml:space="preserve" transform="matrix(1 0 -0 1 -65.95 566.73)" font-size="7.9701" font-family="Computer Modern"><tspan y="-313.997" x="101.963 107.486278 111.7184 114.06958 118.54081 123.24317 129.89023 133.65212 138.35448 141.17589 147.28896">PolypGen-C6</tspan><tspan y="-333.778" x="187.566 193.32837 198.03073 203.79312 210.13733 213.89922 284.76936 289.00148 291.35264 295.58476 299.81687 319.84574 324.07786 326.42903 330.66114 334.89326 354.93009 359.1622 361.51338 365.74549 369.9776 390.00648 394.2386 396.58976 400.82188 405.054 425.09083 429.32295 431.6741 435.90623 440.13835 465.8977 496.74998">ESPNet0.8020.7530.8900.7910.024&#x2013;&#x2013;</tspan><tspan y="-323.84004" x="187.566 194.14133 200.48554 206.82975 209.65116 215.99536 219.04792 225.39212 229.154 235.26708 238.55873 243.2611 250.31462 256.88996 263.23417 269.58634 284.7614 288.99354 291.3447 295.5768 299.80894 319.8378 324.06993 326.42109 330.6532 334.8853 354.92216 359.15428 361.50544 365.73756 369.96968 389.99855 394.23066 396.58183 400.81394 405.04606">KAN-AINet(noKAN)0.8370.7870.9030.869</tspan></text>
<text xml:space="preserve" transform="matrix(1 0 -0 1 -65.95 566.73)" font-size="7.9701" font-family="Computer Modern" font-weight="bold"><tspan y="-323.84004" x="423.6084 428.49409 431.20393 436.0896 440.97529">0.014</tspan></text>
<text xml:space="preserve" transform="matrix(1 0 -0 1 -65.95 566.73)" font-size="7.9701" font-family="Computer Modern"><tspan y="-323.84004" x="458.34214 462.57426 466.80638 469.15754">89.9</tspan></text>
<text xml:space="preserve" transform="matrix(1 0 -0 1 -65.95 566.73)" font-size="5.9776" font-family="Computer Modern" font-style="italic"><tspan y="-326.653" x="473.43598">&#x2217;</tspan></text>
<text xml:space="preserve" transform="matrix(1 0 -0 1 -65.95 566.73)" font-size="7.9701" font-family="Computer Modern"><tspan y="-323.84004" x="491.39097 495.62309 499.8552 502.20637">65.5</tspan><tspan y="-313.90205" x="187.56595 194.14128 200.48548 206.82968 209.6511 215.9953 219.04785 225.39206 229.15395 235.26702 238.55867 245.14197 249.84433 253.14395 256.48344">KAN-AINet(Ours)</tspan></text>
<text xml:space="preserve" transform="matrix(1 0 -0 1 -65.95 566.73)" font-size="7.9701" font-family="Computer Modern" font-weight="bold"><tspan y="-313.90205" x="283.2789 288.16459 290.87443 295.7601 300.64579 318.38725 323.27293 325.98277 330.86845 335.75413 353.4876 358.3733 361.08314 365.9688 370.8545 388.59596 393.48164 396.19148 401.07716 405.96284">0.8720.8220.9140.892</tspan></text>
<text xml:space="preserve" transform="matrix(1 0 -0 1 -65.95 566.73)" font-size="7.9701" font-family="Computer Modern"><tspan y="-313.90205" x="423.01887 427.25099 429.60215 433.83427 438.06639">0.015</tspan></text>
<text xml:space="preserve" transform="matrix(1 0 -0 1 -65.95 566.73)" font-size="5.9776" font-family="Computer Modern" font-style="italic"><tspan y="-316.71504" x="442.26097">&#x2217;</tspan></text>
<text xml:space="preserve" transform="matrix(1 0 -0 1 -65.95 566.73)" font-size="7.9701" font-family="Computer Modern" font-weight="bold"><tspan y="-313.90205" x="459.38798 464.27366 469.15934 471.86918 490.24824 495.1339 500.0196 502.72944">87.626.1</tspan></text>
<text xml:space="preserve" transform="matrix(1 0 -0 1 -65.95 566.73)" font-size="7.9701" font-family="Computer Modern"><tspan y="-303.96504" x="187.56598 194.14131 200.4855 206.82971 209.65113 212.70368 220.45859 282.60945 286.84156 289.19273 293.42485 297.65696">KAN-IMM0.856</tspan></text>
<text xml:space="preserve" transform="matrix(1 0 -0 1 -65.95 566.73)" font-size="5.9776" font-family="Computer Modern" font-style="italic"><tspan y="-306.77705" x="301.89698">&#x2217;</tspan></text>
<text xml:space="preserve" transform="matrix(1 0 -0 1 -65.95 566.73)" font-size="7.9701" font-family="Computer Modern"><tspan y="-303.96504" x="317.69898 321.9311 324.28227 328.51438 332.7465">0.806</tspan></text>
<text xml:space="preserve" transform="matrix(1 0 -0 1 -65.95 566.73)" font-size="5.9776" font-family="Computer Modern" font-style="italic"><tspan y="-306.77705" x="336.98799">&#x2217;</tspan></text>
<text xml:space="preserve" transform="matrix(1 0 -0 1 -65.95 566.73)" font-size="7.9701" font-family="Computer Modern"><tspan y="-303.96504" x="352.78999 357.0221 359.37327 363.60539 367.8375">0.906</tspan></text>
<text xml:space="preserve" transform="matrix(1 0 -0 1 -65.95 566.73)" font-size="5.9776" font-family="Computer Modern" font-style="italic"><tspan y="-306.77705" x="372.07899">&#x2217;</tspan></text>
<text xml:space="preserve" transform="matrix(1 0 -0 1 -65.95 566.73)" font-size="7.9701" font-family="Computer Modern"><tspan y="-303.96504" x="387.88099 392.1131 394.46427 398.69639 402.9285">0.873</tspan></text>
<text xml:space="preserve" transform="matrix(1 0 -0 1 -65.95 566.73)" font-size="5.9776" font-family="Computer Modern" font-style="italic"><tspan y="-306.77705" x="407.16999">&#x2217;</tspan></text>
<text xml:space="preserve" transform="matrix(1 0 -0 1 -65.95 566.73)" font-size="7.9701" font-family="Computer Modern"><tspan y="-303.96504" x="425.12998 429.3621 431.71327 435.94538 440.1775 458.4131 462.6452 466.87733 471.10945 473.4606 489.2095 493.44163 497.67375 500.0249">0.019108.341.8</tspan></text>
<text xml:space="preserve" transform="matrix(1 0 -0 1 -65.95 566.73)" font-size="5.9776" font-family="Computer Modern" font-style="italic"><tspan y="-306.77705" x="504.287">&#x2217;</tspan></text>
<text xml:space="preserve" transform="matrix(1 0 -0 1 -65.95 566.73)" font-size="7.9701" font-family="Computer Modern"><tspan y="-294.02705" x="187.56598 194.14131 200.4855 206.82971 209.65113 215.64464 221.98883 284.76933 289.00144 291.3526 295.58473 299.81684 319.8457 324.07783 326.429 330.6611 334.89323 354.93006 359.16218 361.51335 365.74546 369.97758 390.00645 394.23857 396.58973 400.82185 405.05397 425.0908 429.3229 431.67408 435.9062 440.1383 458.3659 462.59803 466.83015 471.06227 473.41343 491.3302 495.56233 499.79444 502.1456">KAN-BAM0.8390.7900.9040.8630.016135.471.6</tspan></text>
<path transform="matrix(1,0,0,-1,32.027,277.649)" stroke-width=".498" stroke-linecap="butt" stroke-miterlimit="10" stroke-linejoin="miter" fill="none" stroke="#000000" d="M0 0H416.045"/>
<text xml:space="preserve" transform="matrix(1 0 -0 1 -65.95 566.73)" font-size="7.9701" font-family="Computer Modern" font-weight="bold"><tspan y="-259.306" x="101.963 109.01653 113.90221 121.7687 127.196338 129.90618 135.33382 139.80504 148.48448 155.9684 161.39604 165.2456 169.71683 174.18805">CombinedUnseen</tspan></text>
<text xml:space="preserve" transform="matrix(1 0 -0 1 -65.95 566.73)" font-size="7.9701" font-family="Computer Modern"><tspan y="-279.087" x="187.566 193.32837 198.03073 203.79312 210.13733 213.89922 282.6493 286.8814 289.23258 293.4647 297.6968 301.92893 317.7336 321.95777 324.3169 328.54106 332.77317 337.00529 352.80998 357.04209 359.39326 363.62538 367.85749 372.0896 387.88633 392.11845 394.4696 398.70173 402.93385 407.16596 422.96269 427.1948 429.54597 433.77809 438.0102 442.2423 465.8896 496.73387">ESPNet0.80970.73970.87130.79790.0259&#x2013;&#x2013;</tspan><tspan y="-269.14903" x="187.566 193.55951 197.79163 201.1311 204.89299 207.24417 209.59535 214.29772 282.64134 286.87345 289.2246 293.45674 297.68885 301.913 317.71769 321.9498 324.30097 328.53309 332.7652 336.9973 352.79405 357.02616 359.37733 363.60945 367.84156 372.07368 387.8704 392.1025 394.45368 398.6858 402.9179 407.15003 422.94676 427.17887 429.53004 433.76216 437.99427 442.22639 456.22984 460.46195 464.69407 468.92619 471.27735 475.50947 489.18617 493.41828 497.6504 500.00157 504.23368">Baseline0.76970.70190.86010.80550.0298108.2178.77</tspan><tspan y="-259.212" x="187.566 194.14133 200.48554 206.82975 209.65116 215.99536 219.04792 225.39212 229.154 235.26708 238.55873 245.14203 249.84439 253.14402 256.4835">KAN-AINet(Ours)</tspan></text>
<text xml:space="preserve" transform="matrix(1 0 -0 1 -65.95 566.73)" font-size="7.9701" font-family="Computer Modern" font-weight="bold"><tspan y="-259.212" x="280.84013 285.7258 288.43565 293.32133 298.207 303.09269 315.94847 320.83415 323.54399 328.42967 333.31535 338.20103 351.0568 355.94248 358.6523 363.538 368.42369 373.30937 386.16514 391.0508 393.76066 398.64634 403.532 408.4177 421.27348 426.15916 428.869 433.75468 438.64036 443.52604 457.0274 461.9131 466.79878 469.5086 474.3943 487.88768 492.77336 497.65904 500.36888 505.25456">0.81960.75260.88660.84860.026270.4041.29</tspan></text>
<text xml:space="preserve" transform="matrix(1 0 -0 1 -65.95 566.73)" font-size="7.9701" font-family="Computer Modern"><tspan y="-249.274" x="187.566 194.14133 200.48554 206.82975 209.65116 212.7037 220.45862 231.03495 235.26706 239.96942 242.3206 282.6493 286.8814 289.23258 293.4647 297.6968 301.92893 317.72566 321.95777 324.30894 328.54106 332.77317 337.00529 352.802 357.03413 359.38529 363.6174 367.84953 372.08164 387.88633 392.11048 394.4696 398.69377 402.92588 407.158 422.96269 427.1948 429.54597 433.77809 438.0102 442.2423 458.35786 462.58998 466.82209 469.17326 473.40538 489.19413 493.42625 497.65837 500.00953 504.24165">KAN-IMMonly0.79400.72890.87300.82210.027888.8858.15</tspan><tspan y="-239.336" x="187.566 194.14133 200.48554 206.82975 209.65116 215.64467 221.98886 232.56519 236.7973 241.49967 243.85085 282.6493 286.87345 289.23258 293.45674 297.68885 301.92097 317.72566 321.95777 324.30894 328.54106 332.77317 337.00529 352.802 357.03413 359.38529 363.6174 367.84953 372.08164 387.87837 392.11048 394.46165 398.69377 402.92588 407.158 422.9547 427.18684 429.538 433.7701 438.00224 442.23435 456.2378 460.4699 464.70204 468.93415 471.2853 475.51744 489.19413 493.42625 497.65837 500.00953 504.24165">KAN-BAMonly0.77750.71140.86800.81530.0281103.9371.66</tspan></text>
<path transform="matrix(1,0,0,-1,32.027,332.48899)" stroke-width=".797" stroke-linecap="butt" stroke-miterlimit="10" stroke-linejoin="miter" fill="none" stroke="#000000" d="M0 0H416.045"/>
<text xml:space="preserve" transform="matrix(1 0 -0 1 -65.95 566.73)" font-size="9.9626" font-family="Computer Modern"><tspan y="-42.112" x="303.509">1</tspan></text>
<g clip-path="url(#clip_1)">
<g>
<path transform="matrix(1,0,0,-1,-65.95,566.73)" d="M66.45 222.91H551.11V566.23H66.45Z" fill="#ffffff" fill-opacity=".1" fill-rule="evenodd"/>
<path transform="matrix(1,0,0,-1,-65.95,566.73)" stroke-width="1" stroke-linecap="butt" stroke-miterlimit="10" stroke-linejoin="miter" fill="none" stroke="#00a5e4" stroke-opacity=".1" d="M66.45 222.91H551.11V566.23H66.45Z"/>
</g>
</g>
</svg>
