<svg x="0" y="0" width="741" height="526" viewBox="0 0 741 526" version="1.1" xmlns="http://www.w3.org/2000/svg" style="display: block;margin-left: auto;margin-right: auto;">
<defs>
<clipPath id="c_1"><path d="M0,0H741V526H0Z"/></clipPath>
<style>
text { white-space: pre; }
path, image { pointer-events: none; }

.s0{font-size:15.22px;font-family:CMR10_d;fill:#000;}
.s1{font-size:15.22px;font-family:CMBX10_9;fill:#000;}
.s2{font-size:10.65px;font-family:CMSY7_g;fill:#000;}
.s3{font-size:12.18px;font-family:CMR8_e;fill:#000;}
.s4{font-size:12.18px;font-family:CMSY8_h;fill:#000;}
.s5{font-size:12.18px;font-family:CMMI8_c;fill:#000;}
.s6{font-size:9.13px;font-family:CMMI6_b;fill:#000;}
.s7{font-size:9.13px;font-family:CMSY6_f;fill:#000;}
.s8{font-size:12.18px;font-family:CMBX8_a;fill:#000;}

.g0{fill:none;stroke:#000;stroke-width:1.217;stroke-miterlimit:10;}
.g1{fill:none;stroke:#000;stroke-width:0.76;stroke-miterlimit:10;}

</style>

</defs>
<path d="M0 0V526H741V0Z" fill="#FFFFFF" stroke="none"/>
<g clip-path="url(#c_1)">
<text x="9.2" y="25.9" dx="0 -1.3 0 0 0 0 1.9 0 0 4.3 -.4 0 0 0 0 0 0 0 0 0 0 1.9 0 0 0 0 0 0 0 0 0 0 1.9 0 0 1.9 0 0 0 0 1.9 0 0 0 1.9 0 0 0 0 0 0 1.9 0 0 0 0 0 0 0 0 0 5 0 0 1.9 0 0 1.9 0 0 1.9 0 0 1.9 0 0 0 1.9 0 1.9 0 0 0 0 0 0 1.9 0 0 0 0 0 0 2.1 0 0 0 0" class="s0">Table 1: Performance comparison on Seen and Unseen datasets. D, I, M, H, and A denote mDice, mIoU, </text>
<text x="9.2" y="44.1" dx="0 0 0 0 0 1.3 0 0 0 0 0 1.3 0 0 0 1.3 0 0 0 1.3 0 0 0 .4 0 0 0 0 -.4 0 0 -1.3 0 3 0 0 0 0 1.3 0 0 0 0 0 0 0 1.3 0 0 0 1.3 0" class="s0">MAE, HD95, and ASD respectively. Best results are in </text>
<text x="381.8" y="44.1" dx="0 .5 0 0" class="s1">bold</text>
<text x="415.3" y="44.1" dx="0 0 1.3 0 0 0 0 0 0 0 .4 0 0 0 1.3 0 0 0 -.4 0 0 1.3 0 0 0" class="s0">, second-best marked with </text>
<text x="595.2" y="38.6" class="s2">∗ </text>
<text x="602.2" y="44.1" class="s0">. </text>
<path d="M48.9 65.5H684.6" class="g0"/>
<text x="55" y="81" class="s3">Dataset </text>
<text x="185.8" y="81" dx="0 0 0 0 0 .4" class="s3">Method </text>
<text x="340.9" y="81" class="s3">D</text>
<text x="350.7" y="81" class="s4">↑ </text>
<text x="397.1" y="81" class="s3">I</text>
<text x="401.7" y="81" class="s4">↑ </text>
<text x="443.2" y="81" class="s5">S</text>
<text x="451.1" y="82.5" class="s6">α </text>
<text x="462.8" y="81" class="s4">↑ </text>
<text x="495.3" y="81" class="s5">F </text>
<text x="505.2" y="76.7" class="s6">w </text>
<text x="503.5" y="85.2" class="s6">β </text>
<text x="518" y="81" class="s4">↑ </text>
<text x="554.3" y="81" class="s3">M</text>
<text x="566.2" y="81" class="s4">↓ </text>
<text x="606.3" y="81" class="s3">H</text>
<text x="616" y="81" class="s4">↓ </text>
<text x="653.4" y="81" class="s3">A</text>
<text x="663.1" y="81" class="s4">↓ </text>
<path d="M48.9 90H684.6" class="g1"/>
<text x="55" y="135.5" dx="0 0 -.7 0 0 0 0 0 0 0 0 0 0 0" class="s3">Kvasir-Sessile </text>
<text x="185.8" y="105.2" class="s3">ESPNet </text>
<text x="334.3" y="105.2" class="s3">0.883 </text>
<text x="384.6" y="105.2" class="s3">0.819 </text>
<text x="414.1" y="100.9" class="s7">∗ </text>
<text x="441.5" y="105.2" class="s3">0.913 </text>
<text x="495.1" y="105.2" class="s3">0.874 </text>
<text x="545.4" y="105.2" class="s3">0.019 </text>
<text x="574.9" y="100.9" class="s7">∗ </text>
<text x="611.1" y="105.2" class="s3">– </text>
<text x="658.3" y="105.2" class="s3">– </text>
<text x="185.8" y="120.4" dx="0 0 0 0 0 0 0 0 0 0 1.3 0 0 0 1.3 0 0 0" class="s3">KAN-AINet (no KAN) </text>
<text x="334.3" y="120.4" class="s3">0.856 </text>
<text x="387.9" y="120.4" class="s3">0.785 </text>
<text x="441.5" y="120.4" class="s3">0.909 </text>
<text x="495.1" y="120.4" class="s3">0.911 </text>
<text x="548.7" y="120.4" class="s3">0.024 </text>
<text x="602.8" y="120.4" class="s3">54.1 </text>
<text x="650" y="120.4" class="s3">20.5 </text>
<text x="185.8" y="135.6" dx="0 0 0 0 0 0 0 0 0 0 1.3 0 0 0 0 0" class="s3">KAN-AINet (Ours) </text>
<text x="331" y="135.6" class="s3">0.887 </text>
<text x="360.5" y="131.3" class="s7">∗ </text>
<text x="387.9" y="135.6" class="s3">0.818 </text>
<text x="438.2" y="135.6" class="s3">0.922 </text>
<text x="467.7" y="131.3" class="s7">∗ </text>
<text x="491.8" y="135.6" class="s3">0.918 </text>
<text x="521.3" y="131.3" class="s7">∗ </text>
<text x="545.5" y="135.6" class="s3">0.019 </text>
<text x="574.9" y="131.3" class="s7">∗ </text>
<text x="601.1" y="135.6" class="s8">31.2 </text>
<text x="651.9" y="135.6" class="s8">7.4 </text>
<text x="185.8" y="150.8" class="s3">KAN-IMM </text>
<text x="332" y="150.8" class="s8">0.890 </text>
<text x="385.7" y="150.8" class="s8">0.824 </text>
<text x="439.3" y="150.8" class="s8">0.925 </text>
<text x="492.9" y="150.8" class="s8">0.920 </text>
<text x="546.5" y="150.8" class="s8">0.018 </text>
<text x="599.6" y="150.8" class="s3">35.2 </text>
<text x="622.5" y="146.5" class="s7">∗ </text>
<text x="646.7" y="150.8" class="s3">11.4 </text>
<text x="669.7" y="146.5" class="s7">∗ </text>
<text x="185.8" y="166" class="s3">KAN-BAM </text>
<text x="334.3" y="166" class="s3">0.876 </text>
<text x="387.9" y="166" class="s3">0.807 </text>
<text x="441.5" y="166" class="s3">0.919 </text>
<text x="495.1" y="166" class="s3">0.919 </text>
<text x="548.8" y="166" class="s3">0.021 </text>
<text x="602.8" y="166" class="s3">43.2 </text>
<text x="650" y="166" class="s3">13.0 </text>
<path d="M48.9 173.5H684.6" class="g1"/>
<text x="55" y="219" dx="0 0 -.4 0 0 0 0 0 0 0 0" class="s3">CVC-ColonDB </text>
<text x="185.8" y="188.8" class="s3">ESPNet </text>
<text x="332.1" y="188.8" class="s8">0.802 </text>
<text x="385.7" y="188.8" class="s8">0.725 </text>
<text x="438.2" y="188.8" class="s3">0.856 </text>
<text x="467.7" y="184.5" class="s7">∗ </text>
<text x="495.1" y="188.8" class="s3">0.794 </text>
<text x="546.5" y="188.8" class="s8">0.032 </text>
<text x="611.1" y="188.8" class="s3">– </text>
<text x="658.2" y="188.8" class="s3">– </text>
<text x="185.8" y="204" dx="0 0 0 0 0 0 0 0 0 0 1.3 0 0 0 1.3 0 0 0" class="s3">KAN-AINet (no KAN) </text>
<text x="334.3" y="204" class="s3">0.731 </text>
<text x="387.9" y="204" class="s3">0.657 </text>
<text x="441.5" y="204" class="s3">0.830 </text>
<text x="495.1" y="204" class="s3">0.759 </text>
<text x="548.7" y="204" class="s3">0.044 </text>
<text x="599.6" y="204" class="s3">120.5 </text>
<text x="650" y="204" class="s3">89.2 </text>
<text x="185.8" y="219.2" dx="0 0 0 0 0 0 0 0 0 0 1.3 0 0 0 0 0" class="s3">KAN-AINet (Ours) </text>
<text x="331" y="219.2" class="s3">0.784 </text>
<text x="360.5" y="214.9" class="s7">∗ </text>
<text x="384.6" y="219.2" class="s3">0.711 </text>
<text x="414.1" y="214.9" class="s7">∗ </text>
<text x="439.3" y="219.2" class="s8">0.862 </text>
<text x="492.9" y="219.2" class="s8">0.811 </text>
<text x="545.4" y="219.2" class="s3">0.039 </text>
<text x="574.9" y="214.9" class="s7">∗ </text>
<text x="601.1" y="219.2" class="s8">78.3 </text>
<text x="648.2" y="219.2" class="s8">52.0 </text>
<text x="185.8" y="234.3" class="s3">KAN-IMM </text>
<text x="334.3" y="234.3" class="s3">0.775 </text>
<text x="387.9" y="234.3" class="s3">0.704 </text>
<text x="438.2" y="234.3" class="s3">0.856 </text>
<text x="467.7" y="230" class="s7">∗ </text>
<text x="491.8" y="234.3" class="s3">0.799 </text>
<text x="521.3" y="230" class="s7">∗ </text>
<text x="548.7" y="234.3" class="s3">0.040 </text>
<text x="599.6" y="234.3" class="s3">82.9 </text>
<text x="622.5" y="230" class="s7">∗ </text>
<text x="646.7" y="234.3" class="s3">56.7 </text>
<text x="669.7" y="230" class="s7">∗ </text>
<text x="185.8" y="249.5" class="s3">KAN-BAM </text>
<text x="334.3" y="249.5" class="s3">0.747 </text>
<text x="387.9" y="249.5" class="s3">0.675 </text>
<text x="441.5" y="249.5" class="s3">0.846 </text>
<text x="495.1" y="249.5" class="s3">0.782 </text>
<text x="548.8" y="249.5" class="s3">0.041 </text>
<text x="599.6" y="249.5" class="s3">105.0 </text>
<text x="650" y="249.5" class="s3">77.8 </text>
<path d="M48.9 257.1H684.6" class="g1"/>
<text x="55" y="302.6" dx="0 0 0 0 0 0 0 0 0 0 0 -.4 0 0 0 0 0" class="s3">ETIS-LaribPolypDB </text>
<text x="185.8" y="272.3" class="s3">ESPNet </text>
<text x="331" y="272.3" class="s3">0.827 </text>
<text x="360.5" y="268" class="s7">∗ </text>
<text x="384.6" y="272.3" class="s3">0.760 </text>
<text x="414.1" y="268" class="s7">∗ </text>
<text x="441.5" y="272.3" class="s3">0.890 </text>
<text x="495.1" y="272.3" class="s3">0.808 </text>
<text x="548.7" y="272.3" class="s3">0.016 </text>
<text x="611.1" y="272.3" class="s3">– </text>
<text x="658.2" y="272.3" class="s3">– </text>
<text x="185.8" y="287.5" dx="0 0 0 0 0 0 0 0 0 0 1.3 0 0 0 1.3 0 0 0" class="s3">KAN-AINet (no KAN) </text>
<text x="334.3" y="287.5" class="s3">0.809 </text>
<text x="387.9" y="287.5" class="s3">0.744 </text>
<text x="438.2" y="287.5" class="s3">0.894 </text>
<text x="467.7" y="283.2" class="s7">∗ </text>
<text x="491.8" y="287.5" class="s3">0.860 </text>
<text x="521.3" y="283.2" class="s7">∗ </text>
<text x="545.5" y="287.5" class="s3">0.011 </text>
<text x="574.9" y="283.2" class="s7">∗ </text>
<text x="602.8" y="287.5" class="s3">94.5 </text>
<text x="650" y="287.5" class="s3">66.1 </text>
<text x="185.8" y="302.7" dx="0 0 0 0 0 0 0 0 0 0 1.3 0 0 0 0 0" class="s3">KAN-AINet (Ours) </text>
<text x="332" y="302.7" class="s8">0.859 </text>
<text x="385.7" y="302.7" class="s8">0.795 </text>
<text x="439.3" y="302.7" class="s8">0.919 </text>
<text x="492.9" y="302.7" class="s8">0.896 </text>
<text x="546.5" y="302.7" class="s8">0.007 </text>
<text x="601.1" y="302.7" class="s8">48.4 </text>
<text x="648.2" y="302.7" class="s8">29.1 </text>
<text x="185.8" y="317.9" class="s3">KAN-IMM </text>
<text x="334.3" y="317.9" class="s3">0.800 </text>
<text x="387.9" y="317.9" class="s3">0.739 </text>
<text x="441.5" y="317.9" class="s3">0.889 </text>
<text x="495.1" y="317.9" class="s3">0.840 </text>
<text x="545.4" y="317.9" class="s3">0.011 </text>
<text x="574.9" y="313.6" class="s7">∗ </text>
<text x="602.8" y="317.9" class="s3">90.7 </text>
<text x="650" y="317.9" class="s3">68.2 </text>
<text x="185.8" y="333.1" class="s3">KAN-BAM </text>
<text x="334.3" y="333.1" class="s3">0.804 </text>
<text x="387.9" y="333.1" class="s3">0.740 </text>
<text x="441.5" y="333.1" class="s3">0.892 </text>
<text x="495.1" y="333.1" class="s3">0.854 </text>
<text x="545.5" y="333.1" class="s3">0.011 </text>
<text x="574.9" y="328.8" class="s7">∗ </text>
<text x="599.5" y="333.1" class="s3">87.7 </text>
<text x="622.5" y="328.8" class="s7">∗ </text>
<text x="646.7" y="333.1" class="s3">60.7 </text>
<text x="669.7" y="328.8" class="s7">∗ </text>
<path d="M48.9 340.6H684.6" class="g1"/>
<text x="55" y="386.1" dx="0 -.4 0 0 0 0 0 0 0 0 0" class="s3">PolypGen-C6 </text>
<text x="185.8" y="355.9" class="s3">ESPNet </text>
<text x="334.3" y="355.9" class="s3">0.802 </text>
<text x="387.9" y="355.9" class="s3">0.753 </text>
<text x="441.5" y="355.9" class="s3">0.890 </text>
<text x="495.1" y="355.9" class="s3">0.791 </text>
<text x="548.7" y="355.9" class="s3">0.024 </text>
<text x="611.1" y="355.9" class="s3">– </text>
<text x="658.2" y="355.9" class="s3">– </text>
<text x="185.8" y="371.1" dx="0 0 0 0 0 0 0 0 0 0 1.3 0 0 0 1.3 0 0 0" class="s3">KAN-AINet (no KAN) </text>
<text x="334.3" y="371.1" class="s3">0.837 </text>
<text x="387.9" y="371.1" class="s3">0.787 </text>
<text x="441.5" y="371.1" class="s3">0.903 </text>
<text x="495.1" y="371.1" class="s3">0.869 </text>
<text x="546.5" y="371.1" class="s8">0.014 </text>
<text x="599.5" y="371.1" class="s3">89.9 </text>
<text x="622.5" y="366.8" class="s7">∗ </text>
<text x="650" y="371.1" class="s3">65.5 </text>
<text x="185.8" y="386.3" dx="0 0 0 0 0 0 0 0 0 0 1.3 0 0 0 0 0" class="s3">KAN-AINet (Ours) </text>
<text x="332" y="386.3" class="s8">0.872 </text>
<text x="385.7" y="386.3" class="s8">0.822 </text>
<text x="439.3" y="386.3" class="s8">0.914 </text>
<text x="492.9" y="386.3" class="s8">0.892 </text>
<text x="545.5" y="386.3" class="s3">0.015 </text>
<text x="574.9" y="382" class="s7">∗ </text>
<text x="601.1" y="386.3" class="s8">87.6 </text>
<text x="648.2" y="386.3" class="s8">26.1 </text>
<text x="185.8" y="401.4" class="s3">KAN-IMM </text>
<text x="331" y="401.4" class="s3">0.856 </text>
<text x="360.5" y="397.2" class="s7">∗ </text>
<text x="384.6" y="401.4" class="s3">0.806 </text>
<text x="414.1" y="397.2" class="s7">∗ </text>
<text x="438.2" y="401.4" class="s3">0.906 </text>
<text x="467.7" y="397.2" class="s7">∗ </text>
<text x="491.8" y="401.4" class="s3">0.873 </text>
<text x="521.3" y="397.2" class="s7">∗ </text>
<text x="548.7" y="401.4" class="s3">0.019 </text>
<text x="599.6" y="401.4" class="s3">108.3 </text>
<text x="646.7" y="401.4" class="s3">41.8 </text>
<text x="669.7" y="397.2" class="s7">∗ </text>
<text x="185.8" y="416.6" class="s3">KAN-BAM </text>
<text x="334.3" y="416.6" class="s3">0.839 </text>
<text x="387.9" y="416.6" class="s3">0.790 </text>
<text x="441.5" y="416.6" class="s3">0.904 </text>
<text x="495.1" y="416.6" class="s3">0.863 </text>
<text x="548.8" y="416.6" class="s3">0.016 </text>
<text x="599.6" y="416.6" class="s3">135.4 </text>
<text x="650" y="416.6" class="s3">71.6 </text>
<path d="M48.9 424.2H684.6" class="g1"/>
<text x="55" y="469.7" dx="0 0 0 -.4 0 0 0 0 0 1.9 0 0 0 0 0" class="s8">Combined Unseen </text>
<text x="185.8" y="439.5" class="s3">ESPNet </text>
<text x="331.1" y="439.5" class="s3">0.8097 </text>
<text x="384.7" y="439.5" class="s3">0.7397 </text>
<text x="438.3" y="439.5" class="s3">0.8713 </text>
<text x="491.9" y="439.5" class="s3">0.7979 </text>
<text x="545.5" y="439.5" class="s3">0.0259 </text>
<text x="611.1" y="439.5" class="s3">– </text>
<text x="658.2" y="439.5" class="s3">– </text>
<text x="185.8" y="454.6" class="s3">Baseline </text>
<text x="331.1" y="454.6" class="s3">0.7697 </text>
<text x="384.7" y="454.6" class="s3">0.7019 </text>
<text x="438.3" y="454.6" class="s3">0.8601 </text>
<text x="491.9" y="454.6" class="s3">0.8055 </text>
<text x="545.5" y="454.6" class="s3">0.0298 </text>
<text x="596.4" y="454.6" class="s3">108.21 </text>
<text x="646.7" y="454.6" class="s3">78.77 </text>
<text x="185.8" y="469.8" dx="0 0 0 0 0 0 0 0 0 0 1.3 0 0 0 0 0" class="s3">KAN-AINet (Ours) </text>
<text x="328.3" y="469.8" class="s8">0.8196 </text>
<text x="381.9" y="469.8" class="s8">0.7526 </text>
<text x="435.5" y="469.8" class="s8">0.8866 </text>
<text x="489.2" y="469.8" class="s8">0.8486 </text>
<text x="542.8" y="469.8" class="s8">0.0262 </text>
<text x="597.4" y="469.8" class="s8">70.40 </text>
<text x="644.5" y="469.8" class="s8">41.29 </text>
<text x="185.8" y="485" dx="0 0 0 0 0 0 0 0 1.3 0 0 0" class="s3">KAN-IMM only </text>
<text x="331.1" y="485" class="s3">0.7940 </text>
<text x="384.7" y="485" class="s3">0.7289 </text>
<text x="438.3" y="485" class="s3">0.8730 </text>
<text x="491.9" y="485" class="s3">0.8221 </text>
<text x="545.5" y="485" class="s3">0.0278 </text>
<text x="599.6" y="485" class="s3">88.88 </text>
<text x="646.7" y="485" class="s3">58.15 </text>
<text x="185.8" y="500.2" dx="0 0 0 0 0 0 0 0 1.3 0 0 0" class="s3">KAN-BAM only </text>
<text x="331.1" y="500.2" class="s3">0.7775 </text>
<text x="384.7" y="500.2" class="s3">0.7114 </text>
<text x="438.3" y="500.2" class="s3">0.8680 </text>
<text x="491.9" y="500.2" class="s3">0.8153 </text>
<text x="545.5" y="500.2" class="s3">0.0281 </text>
<text x="596.4" y="500.2" class="s3">103.93 </text>
<text x="646.7" y="500.2" class="s3">71.66 </text>
<path d="M48.9 508H684.6" class="g0"/>

</g>

<style>

@font-face {
	font-family: CMBX10_9;
	src: url("fonts/CMBX10_9.woff") format("woff");
}

@font-face {
	font-family: CMBX8_a;
	src: url("fonts/CMBX8_a.woff") format("woff");
}

@font-face {
	font-family: CMMI6_b;
	src: url("fonts/CMMI6_b.woff") format("woff");
}

@font-face {
	font-family: CMMI8_c;
	src: url("fonts/CMMI8_c.woff") format("woff");
}

@font-face {
	font-family: CMR10_d;
	src: url("fonts/CMR10_d.woff") format("woff");
}

@font-face {
	font-family: CMR8_e;
	src: url("fonts/CMR8_e.woff") format("woff");
}

@font-face {
	font-family: CMSY6_f;
	src: url("fonts/CMSY6_f.woff") format("woff");
}

@font-face {
	font-family: CMSY7_g;
	src: url("fonts/CMSY7_g.woff") format("woff");
}

@font-face {
	font-family: CMSY8_h;
	src: url("fonts/CMSY8_h.woff") format("woff");
}

</style>

</svg>
